<svg width="131.19" height="102.09" xmlns="http://www.w3.org/2000/svg">
 <title>glass-v3</title>

 <g>
  <title>Layer 1</title>
  <g data-name="Layer 3" id="Layer_3">
   <path id="svg_1" d="m24.77001,43.95999a5.9,5.9 0 0 0 -2.51,-2.46a8.18,8.18 0 0 0 -3.84,-0.85a7.9,7.9 0 0 0 -6.12,2.51a9.52,9.52 0 0 0 -2.3,6.69a9.64,9.64 0 0 0 2.42,7a8.78,8.78 0 0 0 6.64,2.5a8,8 0 0 0 4.9,-1.47a8.27,8.27 0 0 0 2.92,-4.23l-10,0l0,-5.8l17.11,0l0,7.32a15.4,15.4 0 0 1 -3,5.47a15.76,15.76 0 0 1 -5.32,4.1a16.4,16.4 0 0 1 -7.26,1.56a17.29,17.29 0 0 1 -8.54,-2.09a15,15 0 0 1 -5.84,-5.82a18.43,18.43 0 0 1 0,-17a15.06,15.06 0 0 1 5.82,-5.84a17.12,17.12 0 0 1 8.51,-2.09a16.58,16.58 0 0 1 9.78,2.81a13.24,13.24 0 0 1 5.26,7.77l-8.63,-0.08z"/>
   <path id="svg_2" d="m46.25001,32.03999l0,34l-7.87,0l0,-34l7.87,0z"/>
   <path id="svg_3" d="m51.88001,46.20999a11.24,11.24 0 0 1 4.08,-4.6a10.63,10.63 0 0 1 5.71,-1.57a9.87,9.87 0 0 1 4.76,1.11a8.12,8.12 0 0 1 3.24,2.89l0,-3.64l7.86,0l0,25.64l-7.86,0l0,-3.63a8.47,8.47 0 0 1 -3.2,2.89a9.82,9.82 0 0 1 -4.76,1.11a10.39,10.39 0 0 1 -5.7,-1.64a11.23,11.23 0 0 1 -4.08,-4.64a17,17 0 0 1 0,-13.92l-0.05,0zm16.1,2.35a5.52,5.52 0 0 0 -7.95,0a6.35,6.35 0 0 0 -1.64,4.62a6.52,6.52 0 0 0 1.64,4.67a5.48,5.48 0 0 0 7.95,0a7.4,7.4 0 0 0 0,-9.29z"/>
   <path id="svg_4" d="m87.67001,65.25999a10.25,10.25 0 0 1 -4.14,-3.15a8.3,8.3 0 0 1 -1.7,-4.49l7.77,0a3,3 0 0 0 1.24,2.16a4.36,4.36 0 0 0 2.72,0.83a3.86,3.86 0 0 0 2.27,-0.57a1.77,1.77 0 0 0 0.81,-1.5a1.72,1.72 0 0 0 -1.15,-1.63a23.75,23.75 0 0 0 -3.73,-1.17a36,36 0 0 1 -4.6,-1.36a8,8 0 0 1 -3.17,-2.26a6.12,6.12 0 0 1 -1.34,-4.16a7.08,7.08 0 0 1 1.22,-4a8.3,8.3 0 0 1 3.59,-2.88a13.84,13.84 0 0 1 5.64,-1.06a11.27,11.27 0 0 1 7.61,2.4a9.29,9.29 0 0 1 3.2,6.34l-7.24,0a3.1,3.1 0 0 0 -1.17,-2.11a4.09,4.09 0 0 0 -2.6,-0.78a3.63,3.63 0 0 0 -2.12,0.52a1.7,1.7 0 0 0 -0.73,1.45a1.77,1.77 0 0 0 1.17,1.66a18.07,18.07 0 0 0 3.66,1.1a40.46,40.46 0 0 1 4.59,1.44a8,8 0 0 1 3.15,2.3a6.55,6.55 0 0 1 1.41,4.26a6.77,6.77 0 0 1 -1.27,4a8.39,8.39 0 0 1 -3.63,2.79a14,14 0 0 1 -5.5,1a14.87,14.87 0 0 1 -5.96,-1.13z"/>
   <path id="svg_5" d="m113.32001,65.25999a10.25,10.25 0 0 1 -4.14,-3.15a8.39,8.39 0 0 1 -1.71,-4.49l7.78,0a3,3 0 0 0 1.24,2.16a4.36,4.36 0 0 0 2.72,0.83a3.86,3.86 0 0 0 2.27,-0.57a1.77,1.77 0 0 0 0.81,-1.5a1.73,1.73 0 0 0 -1.15,-1.63a23.75,23.75 0 0 0 -3.73,-1.17a36,36 0 0 1 -4.6,-1.36a8,8 0 0 1 -3.17,-2.26a6.12,6.12 0 0 1 -1.34,-4.16a7.08,7.08 0 0 1 1.22,-4a8.25,8.25 0 0 1 3.59,-2.88a13.84,13.84 0 0 1 5.64,-1.06a11.29,11.29 0 0 1 7.61,2.4a9.28,9.28 0 0 1 3.19,6.34l-7.26,0a3.15,3.15 0 0 0 -1.18,-2.11a4.07,4.07 0 0 0 -2.6,-0.78a3.59,3.59 0 0 0 -2.11,0.52a1.71,1.71 0 0 0 -0.74,1.45a1.77,1.77 0 0 0 1.18,1.66a18.14,18.14 0 0 0 3.65,1.1a41.36,41.36 0 0 1 4.65,1.45a8,8 0 0 1 3.15,2.3a6.54,6.54 0 0 1 1.4,4.26a6.76,6.76 0 0 1 -1.26,4a8.48,8.48 0 0 1 -3.64,2.79a14,14 0 0 1 -5.49,1a14.83,14.83 0 0 1 -5.98,-1.14z"/>
  </g>
 </g>
</svg>